<svg xmlns="http://www.w3.org/2000/svg" width="512" height="512" viewBox="0 0 512 512">
  <rect width="512" height="512" rx="96" fill="#241a14"/>
  <rect x="20" y="20" width="472" height="472" rx="80" fill="none" stroke="#b08d57" stroke-width="10" opacity="0.5"/>
  <!-- Libro abierto -->
  <g stroke="#7a5a34" stroke-width="8" stroke-linejoin="round">
    <path d="M256 360 C 208 330, 150 328, 104 344 L 104 192 C 150 176, 208 178, 256 208 Z" fill="#ddc9a3"/>
    <path d="M256 360 C 304 330, 362 328, 408 344 L 408 192 C 362 176, 304 178, 256 208 Z" fill="#ddc9a3"/>
  </g>
  <line x1="256" y1="208" x2="256" y2="360" stroke="#7a5a34" stroke-width="10"/>
  <g stroke="#b08d57" stroke-width="6" opacity="0.7" stroke-linecap="round">
    <line x1="140" y1="232" x2="228" y2="248"/>
    <line x1="140" y1="266" x2="228" y2="282"/>
    <line x1="284" y1="248" x2="372" y2="232"/>
    <line x1="284" y1="282" x2="372" y2="266"/>
  </g>
  <!-- Pluma -->
  <g transform="rotate(8 320 210)">
    <path d="M188 372 C 250 300, 330 210, 402 128 C 372 150, 300 232, 236 320 C 214 350, 198 366, 188 372 Z" fill="#c9a227" stroke="#7a5a34" stroke-width="6" stroke-linejoin="round"/>
    <line x1="212" y1="344" x2="300" y2="248" stroke="#7a5a34" stroke-width="5" stroke-linecap="round" opacity="0.6"/>
  </g>
</svg>
